<svg xmlns="http://www.w3.org/2000/svg" width="2400" height="1500" viewBox="0 0 2400 1500">
  <defs>
    <linearGradient id="bg" x1="0%" y1="0%" x2="100%" y2="100%">
      <stop offset="0%" stop-color="#0a0a0b"/>
      <stop offset="100%" stop-color="#1c1e22"/>
    </linearGradient>
    <linearGradient id="line" x1="0%" y1="0%" x2="100%" y2="0%">
      <stop offset="0%" stop-color="#7D828B" stop-opacity="0"/>
      <stop offset="50%" stop-color="#7D828B" stop-opacity="0.6"/>
      <stop offset="100%" stop-color="#7D828B" stop-opacity="0"/>
    </linearGradient>
  </defs>
  <rect width="2400" height="1500" fill="url(#bg)"/>
  <g opacity="0.08" stroke="#ffffff" stroke-width="1">
    <line x1="0" y1="0" x2="2400" y2="0"/>
    <line x1="0" y1="150" x2="2400" y2="150"/>
    <line x1="0" y1="300" x2="2400" y2="300"/>
    <line x1="0" y1="450" x2="2400" y2="450"/>
    <line x1="0" y1="600" x2="2400" y2="600"/>
    <line x1="0" y1="750" x2="2400" y2="750"/>
    <line x1="0" y1="900" x2="2400" y2="900"/>
    <line x1="0" y1="1050" x2="2400" y2="1050"/>
    <line x1="0" y1="1200" x2="2400" y2="1200"/>
    <line x1="0" y1="1350" x2="2400" y2="1350"/>
  </g>
  <rect x="0" y="930" width="2400" height="2" fill="url(#line)"/>
  <g transform="translate(1200, 750)" fill="none" stroke="#7D828B" stroke-width="3" opacity="0.85">
    <path d="M -140 20 L -110 -20 L -40 -34 L 40 -34 L 110 -20 L 140 20 L 140 40 L -140 40 Z" />
    <circle cx="-85" cy="42" r="20" />
    <circle cx="85" cy="42" r="20" />
  </g>
  <text x="50%" y="1444" text-anchor="middle" font-family="Helvetica, Arial, sans-serif" font-size="109" fill="#F5F1E8" letter-spacing="2">LUXURY DRIVE — VÉHICULE DE PRESTIGE</text>
  <text x="50%" y="1472" text-anchor="middle" font-family="Helvetica, Arial, sans-serif" font-size="52" fill="#7D828B" letter-spacing="4">IMAGE DE DÉMONSTRATION — À REMPLACER</text>
</svg>
